<svg id="Layer_1" data-name="Layer 1" xmlns="http://www.w3.org/2000/svg" viewBox="0 0 33.16 41.53"><defs><style>.cls-1{fill:#3e3e3e;}.cls-1,.cls-2{stroke:#da00db;stroke-miterlimit:10;}.cls-2{fill:#999;}.cls-3{font-size:37.66px;fill:#da00db;font-family:Rockwell-Condensed, Rockwell Condensed;}</style></defs><title>monk logo</title><g id="s_agreemenfiletype_dark_32" data-name="s agreemenfiletype dark 32"><g id="filetype_zip_32" data-name="filetype zip 32"><g id="Document"><g id="Group_61875" data-name="Group 61875"><path id="Path_36373" data-name="Path 36373" class="cls-1" d="M1.25,3.3A2.48,2.48,0,0,1,3.73.77l26-.27A2.48,2.48,0,0,1,32.25,3l.16,15.4a2,2,0,0,1-.59,1.41l-5,5.15a2,2,0,0,1-1.39.61L4,25.77A2.48,2.48,0,0,1,1.46,23.3Z" transform="translate(-0.25 10.23)"/><path id="Path_36374" data-name="Path 36374" class="cls-2" d="M31.91,18.38a2.1,2.1,0,0,1-.39,1.1l-5,5.15a2.1,2.1,0,0,1-1.1.41L4,25.27a2,2,0,0,1-2-2l-.21-20a2,2,0,0,1,2-2l26-.27a2,2,0,0,1,2,2l.16,15.4m1,0L32.75,3a3,3,0,0,0-3-3L3.72.27a3,3,0,0,0-3,3h0L1,23.3a3,3,0,0,0,3,3H4L25.39,26a2.87,2.87,0,0,0,1.79-.72l5-5.15A3.12,3.12,0,0,0,32.91,18.37Z" transform="translate(-0.25 10.23)"/></g></g></g></g><text class="cls-3" transform="translate(5.44 32.69)">m</text></svg>